<?xml version="1.0" encoding="utf-8"?>
<!-- Generator: Adobe Illustrator 22.1.0, SVG Export Plug-In . SVG Version: 6.00 Build 0)  -->
<svg version="1.1" id="Layer_1" xmlns="http://www.w3.org/2000/svg" xmlns:xlink="http://www.w3.org/1999/xlink" x="0px" y="0px"
	 viewBox="0 0 792 360" style="enable-background:new 0 0 792 360;" xml:space="preserve">
<style type="text/css">
	.st0{fill:#00539B;}
	.st1{fill:#00A94F;}
	.st2{fill:#777777;}
</style>
<g id="LogoMark">
	<g>
		<path class="st0" d="M628.3,236.7c-2.1,0-4.1,0-6.2,0c-61.1-16.4-62.3-101.3-3.6-117.6c4.5,0,9,0,13.5,0
			C570.9,135.5,569.6,220.4,628.3,236.7z"/>
	</g>
	<g>
		<path class="st0" d="M642.1,241.8c-2.1,0-4.1,0-6.2,0c-61.1-16.4-62.3-101.3-3.6-117.6c4.5,0,9,0,13.5,0
			C584.7,140.5,583.4,225.4,642.1,241.8z"/>
	</g>
	<g>
		<path class="st0" d="M655.9,246.8c-2.1,0-4.1,0-6.2,0c-61.1-16.4-62.3-101.3-3.6-117.6c4.5,0,9,0,13.5,0
			C598.4,145.5,597.2,230.4,655.9,246.8z"/>
	</g>
	<path class="st1" d="M550.2,243.5c-1-1-2.1-2-3.1-3c11.3-44.9,4.8-88-15.7-119.7c3.8-3.6,7.6-7.2,11.4-10.9
		C562.7,149.6,565.8,197.6,550.2,243.5z"/>
	<path class="st1" d="M554.6,247.7c-1-1-2.1-2-3.1-3c17.3-46.3,15.5-96.3-4.1-139.1c3.8-3.6,7.6-7.2,11.3-10.9
		C577.8,145.4,576.1,200.4,554.6,247.7z"/>
	<path class="st1" d="M558.9,251.8c-1-1-2.1-2-3.1-3c23.2-47.6,26.3-104.6,7.4-158.4c3.8-3.6,7.6-7.2,11.4-10.9
		C592.9,141.3,586.3,203.3,558.9,251.8z"/>
</g>
<g>
	<path class="st2" d="M239.3,221.8l-0.5-3.7h-0.2c-1.2,1.5-2.4,2.6-3.7,3.2c-1.3,0.6-2.7,0.9-4.4,0.9c-2.3,0-4.1-0.6-5.4-1.8
		c-1.3-1.2-1.9-2.8-1.9-4.9c0-2.3,1-4.1,2.9-5.4c1.9-1.3,4.7-1.9,8.3-2l4.5-0.1v-1.6c0-2.2-0.5-3.9-1.4-5.1
		c-0.9-1.1-2.4-1.7-4.4-1.7c-2.2,0-4.4,0.6-6.8,1.8l-0.8-1.9c2.6-1.2,5.1-1.8,7.7-1.8c2.6,0,4.5,0.7,5.8,2s1.9,3.4,1.9,6.3v15.7
		H239.3z M230.6,220.3c2.5,0,4.5-0.7,6-2.2s2.2-3.4,2.2-6v-2.3l-4.1,0.2c-3.3,0.2-5.7,0.7-7.1,1.6c-1.4,0.9-2.1,2.2-2.1,4.1
		c0,1.5,0.5,2.6,1.4,3.4C227.7,219.9,229,220.3,230.6,220.3z"/>
	<path class="st2" d="M262.1,215.7c0,2.1-0.8,3.7-2.4,4.9c-1.6,1.1-3.9,1.7-6.8,1.7c-3.2,0-5.7-0.5-7.5-1.5v-2.3
		c2.4,1.2,4.9,1.8,7.5,1.8c2.3,0,4.1-0.4,5.3-1.2c1.2-0.8,1.8-1.8,1.8-3.1c0-1.2-0.5-2.2-1.4-3c-1-0.8-2.5-1.6-4.7-2.4
		c-2.4-0.9-4-1.6-5-2.2c-1-0.6-1.7-1.3-2.2-2.1c-0.5-0.8-0.7-1.7-0.7-2.8c0-1.8,0.7-3.2,2.2-4.2c1.5-1,3.6-1.5,6.2-1.5
		c2.5,0,5,0.5,7.2,1.4l-0.8,2c-2.3-1-4.5-1.4-6.4-1.4c-1.9,0-3.4,0.3-4.6,1s-1.7,1.5-1.7,2.6c0,1.2,0.4,2.2,1.3,2.9
		c0.9,0.7,2.6,1.6,5.1,2.5c2.1,0.8,3.7,1.5,4.6,2.1c1,0.6,1.7,1.3,2.2,2.1C261.9,213.7,262.1,214.6,262.1,215.7z"/>
	<path class="st2" d="M289.2,221.8l-0.5-3.7h-0.2c-1.2,1.5-2.4,2.6-3.7,3.2c-1.3,0.6-2.7,0.9-4.4,0.9c-2.3,0-4.1-0.6-5.4-1.8
		c-1.3-1.2-1.9-2.8-1.9-4.9c0-2.3,1-4.1,2.9-5.4c1.9-1.3,4.7-1.9,8.3-2l4.5-0.1v-1.6c0-2.2-0.5-3.9-1.4-5.1
		c-0.9-1.1-2.4-1.7-4.4-1.7c-2.2,0-4.4,0.6-6.8,1.8l-0.8-1.9c2.6-1.2,5.1-1.8,7.7-1.8c2.6,0,4.5,0.7,5.8,2s1.9,3.4,1.9,6.3v15.7
		H289.2z M280.5,220.3c2.5,0,4.5-0.7,6-2.2s2.2-3.4,2.2-6v-2.3l-4.1,0.2c-3.3,0.2-5.7,0.7-7.1,1.6c-1.4,0.9-2.1,2.2-2.1,4.1
		c0,1.5,0.5,2.6,1.4,3.4C277.6,219.9,278.9,220.3,280.5,220.3z"/>
</g>
<g>
	<g>
		<path class="st0" d="M219.8,171.7l-3.2-10.5h-16.1l-3.2,10.5h-10.1l15.6-44.3h11.4l15.6,44.3H219.8z M214.4,153.4
			c-3-9.5-4.6-14.9-5-16.1c-0.4-1.2-0.6-2.2-0.8-3c-0.7,2.6-2.6,8.9-5.7,19.1H214.4z"/>
		<path class="st0" d="M245,171.7h-9.2v-46.9h9.2V171.7z"/>
		<path class="st0" d="M284,138v4.7l-5.3,1.4c1,1.5,1.4,3.2,1.4,5.1c0,3.6-1.3,6.4-3.8,8.5c-2.5,2-6,3-10.5,3l-1.7-0.1l-1.4-0.2
			c-0.9,0.7-1.4,1.5-1.4,2.4c0,1.3,1.7,2,5.1,2h5.7c3.7,0,6.5,0.8,8.5,2.4c1.9,1.6,2.9,3.9,2.9,7c0,3.9-1.6,7-4.9,9.2
			c-3.3,2.2-8,3.3-14.2,3.3c-4.7,0-8.3-0.8-10.8-2.5c-2.5-1.6-3.7-3.9-3.7-6.9c0-2,0.6-3.7,1.9-5.1c1.3-1.4,3.1-2.3,5.6-2.9
			c-0.9-0.4-1.8-1.1-2.5-2c-0.7-0.9-1.1-1.9-1.1-2.9c0-1.3,0.4-2.4,1.1-3.2c0.7-0.9,1.8-1.7,3.2-2.5c-1.8-0.8-3.2-2-4.2-3.7
			c-1-1.7-1.6-3.7-1.6-6c0-3.7,1.2-6.5,3.6-8.5c2.4-2,5.8-3,10.3-3c0.9,0,2.1,0.1,3.4,0.3s2.1,0.3,2.5,0.4H284z M258,176.5
			c0,1.3,0.6,2.3,1.8,3c1.2,0.7,2.9,1.1,5.1,1.1c3.3,0,5.9-0.5,7.8-1.4s2.8-2.1,2.8-3.7c0-1.3-0.6-2.1-1.7-2.6
			c-1.1-0.5-2.8-0.7-5.1-0.7h-4.8c-1.7,0-3.1,0.4-4.2,1.2C258.5,174.1,258,175.2,258,176.5z M261.3,149c0,1.8,0.4,3.3,1.3,4.3
			c0.8,1.1,2.1,1.6,3.8,1.6c1.7,0,3-0.5,3.8-1.6c0.8-1.1,1.2-2.5,1.2-4.3c0-4.1-1.7-6.1-5-6.1C263,142.9,261.3,145,261.3,149z"/>
		<path class="st0" d="M319.6,154.8c0,5.5-1.4,9.8-4.3,12.9c-2.9,3.1-6.9,4.6-12.1,4.6c-3.2,0-6.1-0.7-8.6-2.1
			c-2.5-1.4-4.4-3.5-5.7-6.1s-2-5.8-2-9.3c0-5.5,1.4-9.8,4.3-12.8c2.9-3.1,6.9-4.6,12.1-4.6c3.2,0,6.1,0.7,8.6,2.1
			c2.5,1.4,4.4,3.4,5.7,6.1S319.6,151.2,319.6,154.8z M296.3,154.8c0,3.3,0.5,5.9,1.6,7.6c1.1,1.7,2.9,2.6,5.4,2.6
			c2.5,0,4.2-0.8,5.3-2.5c1.1-1.7,1.6-4.2,1.6-7.6c0-3.3-0.5-5.8-1.6-7.5c-1.1-1.7-2.9-2.5-5.3-2.5c-2.5,0-4.2,0.8-5.3,2.5
			C296.9,148.9,296.3,151.4,296.3,154.8z"/>
		<path class="st0" d="M344.8,137.3c1.2,0,2.3,0.1,3.1,0.3l-0.7,8.6c-0.7-0.2-1.6-0.3-2.7-0.3c-2.9,0-5.2,0.8-6.9,2.3
			c-1.6,1.5-2.5,3.6-2.5,6.3v17.2H326V138h7l1.4,5.7h0.5c1-1.9,2.5-3.4,4.2-4.6C340.8,137.9,342.7,137.3,344.8,137.3z"/>
		<path class="st0" d="M352.6,129.3c0-3,1.7-4.5,5-4.5c3.3,0,5,1.5,5,4.5c0,1.4-0.4,2.5-1.3,3.3c-0.8,0.8-2.1,1.2-3.8,1.2
			C354.3,133.8,352.6,132.3,352.6,129.3z M362.2,171.7H353V138h9.2V171.7z"/>
		<path class="st0" d="M386.2,165c1.6,0,3.5-0.4,5.8-1.1v6.8c-2.3,1-5.1,1.5-8.4,1.5c-3.7,0-6.4-0.9-8-2.8c-1.7-1.9-2.5-4.6-2.5-8.4
			v-16.3h-4.4V141l5.1-3.1l2.7-7.1h5.9v7.2h9.4v6.9h-9.4v16.3c0,1.3,0.4,2.3,1.1,2.9C384,164.7,385,165,386.2,165z"/>
		<path class="st0" d="M429.8,171.7h-9.2V152c0-4.9-1.8-7.3-5.4-7.3c-2.6,0-4.4,0.9-5.6,2.6c-1.1,1.7-1.7,4.6-1.7,8.5v15.9h-9.2
			v-46.9h9.2v9.6c0,0.7-0.1,2.5-0.2,5.2l-0.2,2.7h0.5c2.1-3.3,5.3-4.9,9.8-4.9c4,0,7,1.1,9,3.2c2.1,2.1,3.1,5.2,3.1,9.2V171.7z"/>
		<path class="st0" d="M466.9,171.7h-9.2V152c0-2.4-0.4-4.3-1.2-5.5c-0.8-1.2-2.1-1.8-3.8-1.8c-2.4,0-4.1,0.9-5.1,2.6
			s-1.6,4.6-1.6,8.5v15.9h-9.2V138h7l1.2,4.3h0.5c0.9-1.5,2.2-2.8,3.9-3.6c1.7-0.9,3.7-1.3,5.9-1.3c5,0,8.5,1.6,10.3,4.9h0.8
			c0.9-1.6,2.2-2.8,4-3.6c1.8-0.9,3.7-1.3,6-1.3c3.8,0,6.7,1,8.7,2.9c2,2,2.9,5.1,2.9,9.4v22h-9.2V152c0-2.4-0.4-4.3-1.2-5.5
			c-0.8-1.2-2.1-1.8-3.8-1.8c-2.3,0-3.9,0.8-5.1,2.4c-1.1,1.6-1.7,4.2-1.7,7.7V171.7z"/>
		<path class="st0" d="M518.7,161.7c0,3.5-1.2,6.1-3.6,7.9c-2.4,1.8-6,2.7-10.8,2.7c-2.5,0-4.5-0.2-6.3-0.5
			c-1.7-0.3-3.3-0.8-4.9-1.5v-7.6c1.7,0.8,3.6,1.5,5.8,2s4,0.8,5.7,0.8c3.3,0,5-1,5-2.9c0-0.7-0.2-1.3-0.7-1.8
			c-0.4-0.5-1.2-1-2.3-1.5c-1.1-0.6-2.5-1.2-4.3-2c-2.6-1.1-4.5-2.1-5.7-3c-1.2-0.9-2.1-2-2.7-3.2c-0.6-1.2-0.8-2.7-0.8-4.4
			c0-3,1.2-5.3,3.5-7c2.3-1.6,5.6-2.5,9.9-2.5c4.1,0,8,0.9,11.9,2.7l-2.8,6.6c-1.7-0.7-3.3-1.3-4.7-1.8c-1.5-0.5-3-0.7-4.5-0.7
			c-2.7,0-4.1,0.7-4.1,2.2c0,0.8,0.4,1.5,1.3,2.1c0.9,0.6,2.8,1.5,5.7,2.7c2.6,1.1,4.6,2.1,5.8,3c1.2,0.9,2.1,2,2.7,3.2
			C518.4,158.6,518.7,160,518.7,161.7z"/>
	</g>
	<g>
		<path class="st0" d="M336.9,216.5c0,4-1.4,7.1-4.3,9.4c-2.9,2.3-6.9,3.4-12,3.4c-4.7,0-8.9-0.9-12.5-2.7V218
			c3,1.3,5.5,2.3,7.6,2.8c2.1,0.5,3.9,0.8,5.7,0.8c2.1,0,3.6-0.4,4.7-1.2c1.1-0.8,1.6-2,1.6-3.5c0-0.9-0.2-1.6-0.7-2.3
			c-0.5-0.7-1.2-1.3-2.1-1.9c-0.9-0.6-2.8-1.6-5.7-3c-2.7-1.3-4.7-2.5-6.1-3.6c-1.3-1.2-2.4-2.5-3.2-4.1c-0.8-1.5-1.2-3.4-1.2-5.4
			c0-3.9,1.3-7,4-9.2c2.6-2.2,6.3-3.3,11-3.3c2.3,0,4.5,0.3,6.6,0.8s4.3,1.3,6.5,2.3l-3,7.3c-2.4-1-4.3-1.6-5.8-2
			c-1.5-0.4-3.1-0.6-4.5-0.6c-1.8,0-3.1,0.4-4.1,1.2c-0.9,0.8-1.4,1.9-1.4,3.2c0,0.8,0.2,1.5,0.6,2.2c0.4,0.6,1,1.2,1.8,1.8
			c0.8,0.6,2.8,1.6,5.9,3.1c4.1,2,6.9,3.9,8.5,5.9C336.1,211.2,336.9,213.6,336.9,216.5z"/>
		<path class="st0" d="M359,229.3c-5.4,0-9.7-1.5-12.7-4.5c-3.1-3-4.6-7.2-4.6-12.7c0-5.7,1.4-10,4.2-13.1c2.8-3.1,6.7-4.6,11.7-4.6
			c4.8,0,8.5,1.4,11.1,4.1c2.7,2.7,4,6.5,4,11.2v4.5H351c0.1,2.6,0.9,4.7,2.3,6.1c1.4,1.5,3.5,2.2,6.1,2.2c2,0,4-0.2,5.8-0.6
			c1.8-0.4,3.7-1.1,5.7-2v7.1c-1.6,0.8-3.3,1.4-5.2,1.8C363.8,229.1,361.6,229.3,359,229.3z M357.7,200.9c-2,0-3.5,0.6-4.6,1.9
			c-1.1,1.2-1.7,3-1.9,5.3h12.9c0-2.3-0.6-4-1.8-5.3C361.2,201.5,359.6,200.9,357.7,200.9z"/>
		<path class="st0" d="M398.2,194.4c1.2,0,2.3,0.1,3.1,0.3l-0.7,8.6c-0.7-0.2-1.6-0.3-2.7-0.3c-2.9,0-5.2,0.8-6.9,2.3
			c-1.6,1.5-2.5,3.6-2.5,6.3v17.2h-9.2V195h7l1.4,5.7h0.5c1-1.9,2.5-3.4,4.2-4.6C394.1,195,396.1,194.4,398.2,194.4z"/>
		<path class="st0" d="M416.7,228.7L403.8,195h9.6l6.5,19.2c0.7,2.4,1.2,4.7,1.4,6.9h0.2c0.1-1.9,0.6-4.2,1.4-6.9l6.5-19.2h9.6
			l-12.8,33.7H416.7z"/>
		<path class="st0" d="M442.8,186.3c0-3,1.7-4.5,5-4.5c3.3,0,5,1.5,5,4.5c0,1.4-0.4,2.5-1.3,3.3c-0.8,0.8-2.1,1.2-3.8,1.2
			C444.4,190.8,442.8,189.3,442.8,186.3z M452.4,228.7h-9.2V195h9.2V228.7z"/>
		<path class="st0" d="M474.5,229.3c-10.5,0-15.7-5.8-15.7-17.3c0-5.7,1.4-10.1,4.3-13.1c2.9-3,6.9-4.5,12.3-4.5
			c3.9,0,7.4,0.8,10.5,2.3l-2.7,7.1c-1.4-0.6-2.8-1.1-4-1.4c-1.2-0.4-2.5-0.6-3.7-0.6c-4.8,0-7.2,3.4-7.2,10.2
			c0,6.6,2.4,9.9,7.2,9.9c1.8,0,3.4-0.2,4.9-0.7c1.5-0.5,3-1.2,4.5-2.2v7.9c-1.5,0.9-3,1.6-4.5,2
			C478.7,229.2,476.8,229.3,474.5,229.3z"/>
		<path class="st0" d="M506.5,229.3c-5.4,0-9.7-1.5-12.7-4.5c-3.1-3-4.6-7.2-4.6-12.7c0-5.7,1.4-10,4.2-13.1
			c2.8-3.1,6.7-4.6,11.7-4.6c4.8,0,8.5,1.4,11.1,4.1c2.7,2.7,4,6.5,4,11.2v4.5h-21.7c0.1,2.6,0.9,4.7,2.3,6.1
			c1.4,1.5,3.5,2.2,6.1,2.2c2,0,4-0.2,5.8-0.6c1.8-0.4,3.7-1.1,5.7-2v7.1c-1.6,0.8-3.3,1.4-5.2,1.8
			C511.3,229.1,509.1,229.3,506.5,229.3z M505.2,200.9c-2,0-3.5,0.6-4.6,1.9c-1.1,1.2-1.7,3-1.9,5.3h12.9c0-2.3-0.6-4-1.8-5.3
			S507.1,200.9,505.2,200.9z"/>
	</g>
</g>
</svg>
